# xmcd
#
# Track frame offsets: 
#        180
#        20259
#        40292
#        59112
#
# Disc length: 1077 seconds
#
# Revision: 15
# Processed by: cddbd v1.5.2PL0 Copyright (c) Steve Scherf et al.
# Submitted via: ExactAudioCopyFreeDBPlugin 1.0
#
DISCID=31043304
DTITLE=Pras Michel - Ghetto Supastar (That Is What You Are)
DYEAR=1998
DGENRE=Hip Hop
TTITLE0=Pres Michel - Ghetto Supastar (Main Version) feat. ODB and Mya
TTITLE1=Pres Michel - Ghetto Supastar (Instrumental) feat. ODB and Mya
TTITLE2=Pres Michel - Ghetto Supastar (Acappella) feat. ODB and Mya
TTITLE3=Mya - Don't Be Afraid
EXTD=
EXTT0=
EXTT1=
EXTT2=
EXTT3=
PLAYORDER=
